<svg id="Layer_1" data-name="Layer 1" xmlns="http://www.w3.org/2000/svg" viewBox="0 0 107.94 24.27"><defs><style>.cls-1{fill:#fff;}</style></defs><path class="cls-1" d="M4.59,36.35H7.42A3.82,3.82,0,0,1,9.94,37a2.65,2.65,0,0,1,.79,2.14,3,3,0,0,1-.41,1.61,1.74,1.74,0,0,1-1.14.79v.07a2.2,2.2,0,0,1,1.36.88A3.22,3.22,0,0,1,11,44.24a3.31,3.31,0,0,1-.81,2.37,2.89,2.89,0,0,1-2.21.85H4.59Zm1.94,4.47h1a1.07,1.07,0,0,0,.92-.35,1.68,1.68,0,0,0,.27-1,1.32,1.32,0,0,0-.31-1,1.3,1.3,0,0,0-.95-.3H6.53Zm0,1.73v3.1h1a1.16,1.16,0,0,0,1-.39A2,2,0,0,0,8.85,44c0-1-.44-1.49-1.31-1.49Z" transform="translate(-4.25 -36.31)"/><path class="cls-1" d="M17.73,47.46l-.64-2.8H14.2l-.64,2.8H11.49l2.75-11.15h2.81L19.8,47.46Zm-1-4.63-.59-2.59-.24-1.18c-.12-.63-.2-1.05-.22-1.26-.07.43-.15.91-.25,1.44S15,41,14.61,42.83Z" transform="translate(-4.25 -36.31)"/><path class="cls-1" d="M23.66,47.46H21.6V38.17H19.48V36.35h6.31v1.82H23.66Z" transform="translate(-4.25 -36.31)"/><path class="cls-1" d="M30.39,47.46H28.33V38.17H26.2V36.35h6.31v1.82H30.39Z" transform="translate(-4.25 -36.31)"/><path class="cls-1" d="M33.7,47.46V36.35h2.07v9.3h2.86v1.81Z" transform="translate(-4.25 -36.31)"/><path class="cls-1" d="M45,47.46H40V36.35h5v1.79H42v2.64h2.73v1.8H42v3.07H45Z" transform="translate(-4.25 -36.31)"/><path class="cls-1" d="M52.49,43.14v4.32H50.42V36.35h2.7a3.49,3.49,0,0,1,2.54.82,3.38,3.38,0,0,1,.82,2.48,3.13,3.13,0,0,1-1.43,2.94l2.14,4.87H55l-1.76-4.32Zm0-1.78H53a1.28,1.28,0,0,0,1-.41,2,2,0,0,0,.32-1.24,1.78,1.78,0,0,0-.34-1.21,1.39,1.39,0,0,0-1-.36h-.51Z" transform="translate(-4.25 -36.31)"/><path class="cls-1" d="M58.57,47.46V36.35h2V47.46Z" transform="translate(-4.25 -36.31)"/><path class="cls-1" d="M67.64,36.35h2.08L67.11,47.46H64.48l-2.6-11.11H64l1.45,6.79a24,24,0,0,1,.38,2.48,24.19,24.19,0,0,1,.41-2.48Z" transform="translate(-4.25 -36.31)"/><path class="cls-1" d="M75.71,47.46h-5V36.35h5v1.79H72.77v2.64H75.5v1.8H72.77v3.07h2.94Z" transform="translate(-4.25 -36.31)"/><path class="cls-1" d="M79.4,43.14v4.32H77.33V36.35H80a3.49,3.49,0,0,1,2.54.82,3.38,3.38,0,0,1,.81,2.48A3.12,3.12,0,0,1,82,42.59l2.14,4.87H81.89l-1.76-4.32Zm0-1.78h.53A1.28,1.28,0,0,0,81,41a2,2,0,0,0,.31-1.24A1.79,1.79,0,0,0,81,38.5a1.39,1.39,0,0,0-1-.36H79.4Z" transform="translate(-4.25 -36.31)"/><path class="cls-1" d="M12.23,54.86a7.36,7.36,0,0,1-1,4.24,3.39,3.39,0,0,1-3,1.48,3.38,3.38,0,0,1-3-1.48,7.36,7.36,0,0,1-1-4.26,7.27,7.27,0,0,1,1-4.22,3.42,3.42,0,0,1,3-1.47,3.36,3.36,0,0,1,2.94,1.47A7.36,7.36,0,0,1,12.23,54.86Zm-5.87,0a6.86,6.86,0,0,0,.48,2.89,1.49,1.49,0,0,0,1.4,1c1.25,0,1.87-1.3,1.87-3.89S9.49,51,8.26,51a1.51,1.51,0,0,0-1.42,1A6.88,6.88,0,0,0,6.36,54.86Z" transform="translate(-4.25 -36.31)"/><path class="cls-1" d="M18.39,49.32h2.08L17.86,60.43H15.23l-2.6-11.11h2.08l1.45,6.78a21.35,21.35,0,0,1,.39,2.49c.11-.92.24-1.75.4-2.49Z" transform="translate(-4.25 -36.31)"/><path class="cls-1" d="M26.46,60.43h-5V49.32h5v1.79H23.52v2.64h2.73v1.79H23.52v3.08h2.94Z" transform="translate(-4.25 -36.31)"/><path class="cls-1" d="M30.14,56.1v4.33H28.08V49.32h2.7a3.49,3.49,0,0,1,2.54.81,3.41,3.41,0,0,1,.81,2.49,3.12,3.12,0,0,1-1.42,2.94l2.14,4.87H32.64L30.88,56.1Zm0-1.77h.54a1.22,1.22,0,0,0,1-.42A1.92,1.92,0,0,0,32,52.68a1.72,1.72,0,0,0-.34-1.21,1.35,1.35,0,0,0-1-.36h-.52Z" transform="translate(-4.25 -36.31)"/><path class="cls-1" d="M42.72,60.43H40.65V55.56H37.92v4.87H35.86V49.32h2.06v4.41h2.73V49.32h2.07Z" transform="translate(-4.25 -36.31)"/><path class="cls-1" d="M49.68,60.43h-5V49.32h5v1.79H46.74v2.64h2.73v1.79H46.74v3.08h2.94Z" transform="translate(-4.25 -36.31)"/><path class="cls-1" d="M56.56,60.43l-.64-2.81H53l-.64,2.81H50.32l2.75-11.16h2.8l2.76,11.16Zm-1-4.64-.59-2.58c0-.16-.11-.55-.24-1.18s-.2-1.05-.22-1.27c-.07.44-.15.92-.25,1.44s-.37,1.72-.79,3.59Z" transform="translate(-4.25 -36.31)"/><path class="cls-1" d="M66.68,54.77A6.82,6.82,0,0,1,65.56,59a3.83,3.83,0,0,1-3.23,1.46H59.61V49.32h3a3.58,3.58,0,0,1,3,1.43A6.58,6.58,0,0,1,66.68,54.77Zm-2.12.06c0-2.48-.69-3.72-2.05-3.72h-.83v7.51h.67A1.8,1.8,0,0,0,64,57.67,5.88,5.88,0,0,0,64.56,54.83Z" transform="translate(-4.25 -36.31)"/><path class="cls-1" d="M79.21,54.77A6.76,6.76,0,0,1,78.08,59a3.82,3.82,0,0,1-3.22,1.46H72.14V49.32h3a3.58,3.58,0,0,1,3,1.43A6.58,6.58,0,0,1,79.21,54.77Zm-2.12.06c0-2.48-.69-3.72-2.06-3.72h-.82v7.51h.66a1.81,1.81,0,0,0,1.68-.95A5.88,5.88,0,0,0,77.09,54.83Z" transform="translate(-4.25 -36.31)"/><path class="cls-1" d="M88.47,54.86a7.35,7.35,0,0,1-1,4.24,3.7,3.7,0,0,1-5.92,0,7.44,7.44,0,0,1-1-4.26,7.34,7.34,0,0,1,1-4.22,3.43,3.43,0,0,1,3-1.47,3.38,3.38,0,0,1,3,1.47A7.44,7.44,0,0,1,88.47,54.86Zm-5.88,0a6.86,6.86,0,0,0,.48,2.89,1.51,1.51,0,0,0,1.41,1c1.24,0,1.87-1.3,1.87-3.89S85.73,51,84.49,51a1.52,1.52,0,0,0-1.42,1A6.88,6.88,0,0,0,82.59,54.86Z" transform="translate(-4.25 -36.31)"/><path class="cls-1" d="M97.73,54.86a7.35,7.35,0,0,1-1,4.24,3.69,3.69,0,0,1-5.91,0,7.36,7.36,0,0,1-1-4.26,7.26,7.26,0,0,1,1-4.22,3.72,3.72,0,0,1,5.92,0A7.36,7.36,0,0,1,97.73,54.86Zm-5.88,0a6.86,6.86,0,0,0,.48,2.89,1.51,1.51,0,0,0,1.41,1c1.24,0,1.87-1.3,1.87-3.89S95,51,93.75,51a1.53,1.53,0,0,0-1.42,1A6.88,6.88,0,0,0,91.85,54.86Z" transform="translate(-4.25 -36.31)"/><path class="cls-1" d="M101.41,56.1v4.33H99.34V49.32h2.71a3.46,3.46,0,0,1,2.53.81,3.37,3.37,0,0,1,.82,2.49A3.12,3.12,0,0,1,104,55.56l2.13,4.87H103.9l-1.75-4.33Zm0-1.77h.53a1.23,1.23,0,0,0,1-.42,2,2,0,0,0,.32-1.23,1.72,1.72,0,0,0-.34-1.21,1.35,1.35,0,0,0-1-.36h-.52Z" transform="translate(-4.25 -36.31)"/><path class="cls-1" d="M112.18,57.37a3.35,3.35,0,0,1-.78,2.38,3,3,0,0,1-2.27.83,5,5,0,0,1-2.47-.57V58a4.27,4.27,0,0,0,2.29.81,1.15,1.15,0,0,0,.89-.33,1.26,1.26,0,0,0,.3-.89,1.6,1.6,0,0,0-.36-1,5,5,0,0,0-1.17-1,5.39,5.39,0,0,1-1.09-1,3.71,3.71,0,0,1-.57-1,4,4,0,0,1-.2-1.31,3.13,3.13,0,0,1,.8-2.26,2.79,2.79,0,0,1,2.13-.84,4.61,4.61,0,0,1,2.45.72l-.68,1.65a6.88,6.88,0,0,0-.77-.38,2.19,2.19,0,0,0-.85-.17.93.93,0,0,0-.77.33,1.38,1.38,0,0,0-.27.9,1.56,1.56,0,0,0,.32,1,4.69,4.69,0,0,0,1.13,1,4.91,4.91,0,0,1,1.52,1.49A3.56,3.56,0,0,1,112.18,57.37Z" transform="translate(-4.25 -36.31)"/></svg>